<svg width="26" height="31" viewBox="0 0 26 31" fill="none" xmlns="http://www.w3.org/2000/svg">
<path fill-rule="evenodd" clip-rule="evenodd" d="M12.5018 0.5C14.1716 0.5 22.9346 3.50796 24.093 4.66781C25.0598 5.6346 25.0451 6.4157 24.9773 10.1635C24.9508 11.6638 24.9139 13.7079 24.9139 16.5331C24.9139 26.6756 13.3154 30.304 12.8217 30.4528C12.717 30.4853 12.6094 30.5 12.5018 30.5C12.3943 30.5 12.2867 30.4853 12.182 30.4528C11.6883 30.304 0.0897846 26.6756 0.0897846 16.5331C0.0897846 13.7035 0.0529405 11.6594 0.0264127 10.1591C0.0143067 9.49061 0.00389261 8.91661 0.00044887 8.41915L0 7.85778C0.012504 6.01355 0.185211 5.39291 0.909199 4.66781C2.06905 3.50796 10.8321 0.5 12.5018 0.5ZM12.5018 2.71065C11.2521 2.71065 3.36597 5.48723 2.45665 6.24622C2.28224 6.4216 2.21746 6.68266 2.20916 7.71863L2.20849 8.11756C2.21024 8.62313 2.22051 9.27384 2.23559 10.1178C2.26359 11.6299 2.30044 13.6858 2.30044 16.5331C2.30044 24.1982 10.7333 27.6011 12.5004 28.2274C14.2659 27.5982 22.7033 24.1761 22.7033 16.5331C22.7033 13.6887 22.7401 11.6343 22.7666 10.1222C22.7821 9.27747 22.7927 8.62618 22.7943 8.11986L22.7934 7.72025C22.7841 6.68219 22.7153 6.41746 22.5294 6.23148C21.6363 5.48723 13.7516 2.71065 12.5018 2.71065ZM10.5136 11.6081L12.502 13.5974L14.4901 11.6081C14.9219 11.1763 15.6205 11.1763 16.0523 11.6081C16.4841 12.0399 16.4841 12.7385 16.0523 13.1703L14.0642 15.1596L16.052 17.1465C16.4838 17.5783 16.4838 18.2769 16.052 18.7087C15.8368 18.9253 15.5539 19.0329 15.2709 19.0329C14.9879 19.0329 14.705 18.9253 14.4898 18.7087L12.502 16.7218L10.5139 18.7087C10.2987 18.9253 10.0158 19.0329 9.73279 19.0329C9.44983 19.0329 9.16686 18.9253 8.95169 18.7087C8.51988 18.2769 8.51988 17.5783 8.95169 17.1465L10.9398 15.1596L8.9514 13.1703C8.51958 12.7385 8.51958 12.0399 8.9514 11.6081C9.38321 11.1763 10.0818 11.1763 10.5136 11.6081Z" fill="#F45252"/>
</svg>
