<svg width="14" height="14" viewBox="0 0 14 14" fill="none" xmlns="http://www.w3.org/2000/svg">
<path fill-rule="evenodd" clip-rule="evenodd" d="M10.0334 0.000732422C11.1615 0.000732422 12.1346 0.37746 12.8466 1.09093C13.591 1.83596 13.9993 2.91985 13.9979 4.14333L13.9989 9.0516C14.0001 9.07048 14.0003 9.08941 13.9995 9.10831L13.9979 9.85739C13.9979 12.3345 12.4033 13.9993 10.0299 13.9993H3.96441C1.5932 13.9993 0 12.3345 0 9.85739V4.14263C0 1.66549 1.5932 0.000732422 3.96441 0.000732422H10.0334ZM10.2275 7.60004C9.81499 7.60004 9.33092 8.28264 8.90228 8.88526C8.31439 9.71308 7.70615 10.5697 6.78994 10.5697C6.17048 10.5697 5.60293 10.3311 5.10273 10.12C4.30718 9.78464 3.94659 9.6773 3.59372 9.96774C2.88733 10.5498 2.18936 11.6098 1.86864 12.1314C2.37484 12.6533 3.09391 12.947 3.96441 12.947H10.0299C11.8013 12.947 12.9455 11.7347 12.9455 9.85739L12.9455 9.29686L12.9294 9.27981C12.3152 8.64707 11.2547 7.60004 10.2275 7.60004ZM10.0334 1.05304H3.96441C2.19582 1.05304 1.05231 2.26601 1.05231 4.14263V9.85739C1.05231 10.3264 1.12369 10.754 1.25837 11.1314C1.66434 10.5185 2.27748 9.68859 2.92515 9.15536C3.80348 8.43277 4.74915 8.82984 5.51103 9.15045C5.95931 9.33916 6.38304 9.51735 6.78994 9.51735C7.16316 9.51735 7.63109 8.8579 8.045 8.27633C8.61956 7.46534 9.27199 6.54773 10.2275 6.54773C11.2761 6.54773 12.2259 7.19214 12.9463 7.83165L12.9455 4.14263C12.9469 3.18643 12.6551 2.38808 12.1023 1.83456C11.5916 1.32314 10.8767 1.05304 10.0334 1.05304ZM4.81047 2.93984C5.81437 2.94054 6.63097 3.75714 6.63167 4.76034C6.63167 5.76425 5.81508 6.58154 4.81047 6.58154C3.80586 6.58154 2.98927 5.76495 2.98927 4.76104C2.98927 3.75643 3.80586 2.93984 4.81047 2.93984ZM4.80977 3.99215C4.38604 3.99215 4.04158 4.33661 4.04158 4.76104C4.04158 5.18477 4.38604 5.52923 4.81047 5.52923C5.2342 5.52923 5.57936 5.18477 5.57936 4.76174C5.57866 4.33731 5.2335 3.99285 4.80977 3.99215Z" fill="white"/>
</svg>
