<svg width="287" height="256" viewBox="0 0 287 256" fill="none" xmlns="http://www.w3.org/2000/svg">
<path d="M277.818 187.1C280.418 187.1 282.418 188.3 283.818 190.7C285.418 193.1 286.218 196.4 286.218 200.6C286.218 208.4 284.318 214.6 280.518 219.2C270.918 230.8 261.218 239.8 251.418 246.2C241.618 252.4 230.018 255.5 216.618 255.5C203.618 255.5 192.518 252 183.318 245C174.318 238 165.718 226 157.518 209C150.918 195.4 145.718 185.4 141.918 179C138.118 172.4 134.318 167.7 130.518 164.9C126.918 162.1 122.418 160.4 117.018 159.8C116.218 164 113.918 177.2 110.118 199.4C108.518 209.4 107.518 215.5 107.118 217.7C105.118 229.9 101.118 239.3 95.1176 245.9C89.1176 252.3 80.0176 255.5 67.8176 255.5C54.4176 255.5 42.5176 251.6 32.1176 243.8C21.9176 235.8 14.0176 224.8 8.41758 210.8C2.81758 196.6 0.0175792 180.5 0.0175792 162.5C0.0175792 128.9 5.81758 99.9 17.4176 75.5C29.2176 51.1 45.6176 32.5 66.6176 19.7C87.8176 6.7 112.218 0.199995 139.818 0.199995C159.018 0.199995 175.118 3.09999 188.118 8.89999C201.118 14.7 210.718 22.7 216.918 32.9C223.318 43.1 226.518 54.6 226.518 67.4C226.518 78.6 223.818 89.6 218.418 100.4C213.218 111 205.318 120.4 194.718 128.6C184.118 136.8 171.218 142.9 156.018 146.9C165.618 149.5 173.018 153.7 178.218 159.5C183.418 165.3 188.618 173.8 193.818 185C199.418 197 204.918 205.8 210.318 211.4C215.918 217 222.318 219.8 229.518 219.8C235.918 219.8 242.018 217.7 247.818 213.5C253.618 209.1 260.918 201.7 269.718 191.3C272.118 188.5 274.818 187.1 277.818 187.1ZM75.6176 159.5C68.8176 159.5 64.1176 157.9 61.5176 154.7C59.1176 151.5 57.9176 147.9 57.9176 143.9C57.9176 139.1 59.4176 135.3 62.4176 132.5C65.6176 129.7 69.2176 128.3 73.2176 128.3H80.7176C83.9176 108.7 86.9176 91.8 89.7176 77.6C92.3176 64.6 100.718 58.1 114.918 58.1C126.318 58.1 132.018 63.2 132.018 73.4C132.018 75.6 131.918 77.3 131.718 78.5L122.718 128.3C133.518 127.7 143.318 125.1 152.118 120.5C161.118 115.9 168.218 109.5 173.418 101.3C178.818 93.1 181.518 83.8 181.518 73.4C181.518 60.8 177.218 50.9 168.618 43.7C160.018 36.5 147.418 32.9 130.818 32.9C111.218 32.9 94.0176 37.8 79.2176 47.6C64.6176 57.2 53.2176 71.6 45.0176 90.8C36.8176 109.8 32.7176 133 32.7176 160.4C32.7176 173.2 34.0176 184.2 36.6176 193.4C39.2176 202.6 42.4176 209.5 46.2176 214.1C50.0176 218.7 53.6176 221 57.0176 221C59.6176 221 61.7176 219.7 63.3176 217.1C65.1176 214.5 66.5176 210.3 67.5176 204.5L75.6176 159.5Z" fill="url(#paint0_linear_2_407)"/>
<defs>
<linearGradient id="paint0_linear_2_407" x1="237" y1="9" x2="-36.5357" y2="9" gradientUnits="userSpaceOnUse">
<stop stop-color="#4A43EC"/>
<stop offset="1" stop-color="#159DFF" stop-opacity="0.5"/>
</linearGradient>
</defs>
</svg>
