<svg width="22" height="22" viewBox="0 0 22 22" fill="none" xmlns="http://www.w3.org/2000/svg">
<path fill-rule="evenodd" clip-rule="evenodd" d="M15.7674 0C19.4953 0 22 2.6158 22 6.5076V15.4924C22 19.3842 19.4953 22 15.7652 22H6.2304C2.5036 22 0 19.3842 0 15.4924V6.5076C0 2.6158 2.5036 0 6.2304 0H15.7674ZM15.7674 1.65H6.2304C3.4485 1.65 1.65 3.5563 1.65 6.5076V15.4924C1.65 18.4437 3.4485 20.35 6.2304 20.35H15.7652C18.5504 20.35 20.35 18.4437 20.35 15.4924V6.5076C20.35 3.5563 18.5504 1.65 15.7674 1.65ZM7.52048 8.13824C8.8133 8.13914 9.90598 8.99801 10.2611 10.1738L16.5107 10.1745C16.9661 10.1745 17.3357 10.5441 17.3357 10.9995V13.0378C17.3357 13.4932 16.9661 13.8628 16.5107 13.8628C16.0553 13.8628 15.6857 13.4932 15.6857 13.0378V11.8245L14.2241 11.8239L14.2246 13.0378C14.2246 13.4932 13.8551 13.8628 13.3996 13.8628C12.9443 13.8628 12.5746 13.4932 12.5746 13.0378L12.5741 11.8239L10.2616 11.825C9.90669 13.0021 8.81231 13.8626 7.52048 13.8626C5.94198 13.8626 4.65828 12.5778 4.65828 11.0004C4.65828 9.42194 5.94198 8.13824 7.52048 8.13824ZM7.52268 9.78824C6.85168 9.78824 6.30828 10.3316 6.30828 11.0004C6.30828 11.6692 6.85168 12.2126 7.52048 12.2126C8.18818 12.2126 8.73268 11.6692 8.73268 11.0004C8.73268 10.3327 8.18928 9.78934 7.52268 9.78824Z" fill="#4A43EC"/>
</svg>
