<svg width="41" height="42" viewBox="0 0 41 42" fill="none" xmlns="http://www.w3.org/2000/svg">
<path fill-rule="evenodd" clip-rule="evenodd" d="M19.478 0C30.218 0 38.954 8.736 38.954 19.476C38.954 24.5431 37.0094 29.1646 33.8273 32.633L40.0888 38.8814C40.6748 39.4674 40.6768 40.4154 40.0908 41.0014C39.7988 41.2974 39.4128 41.4434 39.0288 41.4434C38.6468 41.4434 38.2628 41.2974 37.9688 41.0054L31.6317 34.686C28.2981 37.3557 24.0714 38.954 19.478 38.954C8.738 38.954 0 30.216 0 19.476C0 8.736 8.738 0 19.478 0ZM19.478 3C10.392 3 3 10.39 3 19.476C3 28.562 10.392 35.954 19.478 35.954C28.562 35.954 35.954 28.562 35.954 19.476C35.954 10.39 28.562 3 19.478 3Z" fill="#4A43EC"/>
</svg>
