<svg width="20" height="22" viewBox="0 0 20 22" fill="none" xmlns="http://www.w3.org/2000/svg">
<path fill-rule="evenodd" clip-rule="evenodd" d="M10.648 0C11.3905 0 12.1124 0.304901 12.6299 0.834847C13.1463 1.3679 13.4315 2.09904 13.4097 2.84055C13.4118 3.00752 13.4668 3.20042 13.5663 3.36946C13.7312 3.64947 13.9915 3.84652 14.3006 3.92741C14.6096 4.00415 14.9332 3.96267 15.208 3.79985C16.5355 3.04175 18.2249 3.49599 18.983 4.81307L19.6291 5.93208C19.6457 5.96216 19.6602 5.99119 19.6726 6.02127C20.3592 7.31865 19.9008 8.95205 18.6252 9.69771C18.4396 9.80453 18.2892 9.95387 18.1855 10.1343C18.0247 10.4133 17.9801 10.7452 18.061 11.0501C18.144 11.3612 18.3421 11.6194 18.6211 11.7791C19.2506 12.1411 19.7204 12.7509 19.9081 13.455C20.0958 14.1582 19.9931 14.9215 19.627 15.551L18.9384 16.698C18.1803 18.0005 16.4909 18.4517 15.1769 17.6925C15.0017 17.5919 14.7994 17.537 14.5982 17.5318H14.592C14.2923 17.5318 13.9843 17.6593 13.7603 17.8823C13.5332 18.1094 13.4087 18.4123 13.4108 18.7338C13.4035 20.2572 12.1642 21.4893 10.648 21.4893H9.34855C7.82508 21.4893 6.58577 20.251 6.58577 18.7275C6.5837 18.5398 6.52977 18.3449 6.42917 18.1758C6.26635 17.8917 6.00293 17.6884 5.69907 17.6075C5.39728 17.5266 5.06645 17.5712 4.79474 17.7288C4.14345 18.0918 3.37705 18.18 2.67599 17.9829C1.97596 17.7848 1.37135 17.3036 1.01667 16.6658L0.368494 15.5489C-0.389609 14.2339 0.0615191 12.5486 1.37446 11.7895C1.74677 11.5748 1.97804 11.1745 1.97804 10.7452C1.97804 10.3158 1.74677 9.91446 1.37446 9.69978C0.0604821 8.93649 -0.389609 7.24709 0.367457 5.93208L1.0706 4.77781C1.81833 3.47732 3.50876 3.01893 4.82689 3.776C5.0063 3.88282 5.20127 3.93674 5.39935 3.93882C6.04545 3.93882 6.58577 3.40576 6.59614 2.75033C6.59199 2.02749 6.87719 1.33368 7.39676 0.809957C7.91841 0.28727 8.61118 0 9.34855 0H10.648ZM10.648 1.55562H9.34855C9.02705 1.55562 8.7263 1.6811 8.49918 1.90718C8.2731 2.1343 8.14968 2.43609 8.15176 2.75759C8.12998 4.27379 6.89067 5.49443 5.39002 5.49443C4.90882 5.48925 4.44524 5.35961 4.04286 5.11901C3.47765 4.79752 2.73925 4.9956 2.40842 5.57118L1.70632 6.72544C1.38483 7.28339 1.58187 8.02075 2.15434 8.35366C3.00371 8.84523 3.53365 9.76201 3.53365 10.7452C3.53365 11.7283 3.00371 12.644 2.15227 13.1367C1.58291 13.4664 1.38587 14.1997 1.71566 14.7701L2.37005 15.8984C2.53184 16.1898 2.79629 16.4003 3.10223 16.4864C3.40713 16.5715 3.74314 16.5352 4.02315 16.3796C4.43487 16.138 4.914 16.0125 5.39521 16.0125C5.6327 16.0125 5.87019 16.0425 6.10249 16.1048C6.80356 16.2935 7.41232 16.7623 7.77322 17.3918C8.0076 17.7869 8.13724 18.2484 8.14139 18.7192C8.14139 19.3933 8.68274 19.9337 9.34855 19.9337H10.648C11.3107 19.9337 11.852 19.3965 11.8552 18.7338C11.851 18.0016 12.1372 17.3057 12.661 16.782C13.1774 16.2655 13.8992 15.9554 14.621 15.9762C15.094 15.9876 15.5492 16.1151 15.9506 16.3433C16.5282 16.6741 17.2656 16.4771 17.5995 15.9067L18.2881 14.7586C18.4416 14.4942 18.4862 14.1623 18.4043 13.8564C18.3234 13.5504 18.1201 13.285 17.8464 13.1284C17.2054 12.7592 16.7481 12.1639 16.5583 11.4504C16.3706 10.7503 16.4733 9.98602 16.8394 9.35651C17.0779 8.94168 17.4274 8.59218 17.8464 8.35158C18.4085 8.02283 18.6055 7.28754 18.2788 6.71507C18.2653 6.69226 18.2529 6.66841 18.2425 6.64352L17.6348 5.58985C17.304 5.01427 16.5676 4.81619 15.99 5.14494C15.3657 5.51414 14.6231 5.61992 13.9096 5.43221C13.1971 5.24761 12.5998 4.79648 12.2275 4.15972C11.9889 3.76148 11.8593 3.29791 11.8552 2.82604C11.8645 2.47135 11.74 2.15297 11.514 1.91963C11.2889 1.68732 10.9726 1.55562 10.648 1.55562ZM10.0028 7.23268C11.9391 7.23268 13.5144 8.80904 13.5144 10.7453C13.5144 12.6815 11.9391 14.2558 10.0028 14.2558C8.06661 14.2558 6.49129 12.6815 6.49129 10.7453C6.49129 8.80904 8.06661 7.23268 10.0028 7.23268ZM10.0028 8.78829C8.92428 8.78829 8.04691 9.6667 8.04691 10.7453C8.04691 11.8238 8.92428 12.7001 10.0028 12.7001C11.0814 12.7001 11.9588 11.8238 11.9588 10.7453C11.9588 9.6667 11.0814 8.78829 10.0028 8.78829Z" fill="#808191"/>
</svg>
