<svg width="26" height="31" viewBox="0 0 26 31" fill="none" xmlns="http://www.w3.org/2000/svg">
<path fill-rule="evenodd" clip-rule="evenodd" d="M12.5018 0.5C14.1716 0.5 22.9331 3.50796 24.093 4.66781C25.0598 5.6346 25.045 6.4157 24.9772 10.1591C24.9507 11.6594 24.9139 13.7035 24.9139 16.5331C24.9139 26.6756 13.3153 30.304 12.8216 30.4528C12.717 30.4853 12.6094 30.5 12.5018 30.5C12.3942 30.5 12.2866 30.4853 12.182 30.4528C11.6883 30.304 0.0897386 26.6756 0.0897386 16.5331C0.0897386 13.7079 0.0528944 11.6638 0.0263666 10.1635C0.0142607 9.49424 0.00384655 8.91959 0.000419599 8.4216L0 7.85965C0.0126422 6.01355 0.185902 5.39291 0.9121 4.66781C2.06901 3.50796 10.8306 0.5 12.5018 0.5ZM12.5018 2.71065C11.252 2.71065 3.3674 5.48723 2.45808 6.24622C2.18986 6.51592 2.17954 6.98457 2.23702 10.1222C2.26354 11.6343 2.30039 13.6887 2.30039 16.5331C2.30039 24.1982 10.7333 27.6011 12.5003 28.2274C14.2659 27.5982 22.7032 24.1761 22.7032 16.5331C22.7032 13.6858 22.7401 11.6299 22.7681 10.1178C22.8241 6.9831 22.8137 6.51444 22.5293 6.23148C21.6377 5.48723 13.7516 2.71065 12.5018 2.71065ZM17.9864 11.3167C18.4182 11.7485 18.4182 12.4486 17.9864 12.8804L12.2417 18.6266C12.0766 18.7928 11.8635 18.9006 11.6346 18.9371L11.4606 18.9508C11.1673 18.9508 10.8858 18.8344 10.678 18.6266L7.88965 15.8353C7.45931 15.4035 7.45931 14.702 7.89112 14.2716C8.32146 13.8398 9.02298 13.8398 9.45479 14.2716L11.4606 16.2804L16.4242 11.3167C16.856 10.8849 17.5546 10.8849 17.9864 11.3167Z" fill="#20C745"/>
</svg>
