<svg width="123" height="110" viewBox="0 0 123 110" fill="none" xmlns="http://www.w3.org/2000/svg">
<path d="M119.256 80.456C120.365 80.456 121.218 80.968 121.816 81.992C122.498 83.016 122.84 84.424 122.84 86.216C122.84 89.544 122.029 92.1893 120.408 94.152C116.312 99.1013 112.173 102.941 107.992 105.672C103.81 108.317 98.8608 109.64 93.1435 109.64C87.5968 109.64 82.8608 108.147 78.9355 105.16C75.0955 102.173 71.4262 97.0533 67.9275 89.8C65.1115 83.9973 62.8928 79.7307 61.2715 77C59.6502 74.184 58.0288 72.1787 56.4075 70.984C54.8715 69.7893 52.9515 69.064 50.6475 68.808C50.3062 70.6 49.3248 76.232 47.7035 85.704C47.0208 89.9707 46.5942 92.5733 46.4235 93.512C45.5702 98.7173 43.8635 102.728 41.3035 105.544C38.7435 108.275 34.8608 109.64 29.6555 109.64C23.9382 109.64 18.8608 107.976 14.4235 104.648C10.0715 101.235 6.70083 96.5413 4.3115 90.568C1.92217 84.5093 0.7275 77.64 0.7275 69.96C0.7275 55.624 3.20217 43.2507 8.1515 32.84C13.1862 22.4293 20.1835 14.4933 29.1435 9.032C38.1888 3.48533 48.5995 0.711998 60.3755 0.711998C68.5675 0.711998 75.4368 1.94933 80.9835 4.424C86.5302 6.89866 90.6262 10.312 93.2715 14.664C96.0022 19.016 97.3675 23.9227 97.3675 29.384C97.3675 34.1627 96.2155 38.856 93.9115 43.464C91.6928 47.9867 88.3222 51.9973 83.7995 55.496C79.2768 58.9947 73.7728 61.5973 67.2875 63.304C71.3835 64.4133 74.5408 66.2053 76.7595 68.68C78.9782 71.1547 81.1968 74.7813 83.4155 79.56C85.8048 84.68 88.1515 88.4347 90.4555 90.824C92.8448 93.2133 95.5755 94.408 98.6475 94.408C101.378 94.408 103.981 93.512 106.456 91.72C108.93 89.8427 112.045 86.6853 115.8 82.248C116.824 81.0533 117.976 80.456 119.256 80.456ZM32.9835 68.68C30.0822 68.68 28.0768 67.9973 26.9675 66.632C25.9435 65.2667 25.4315 63.7307 25.4315 62.024C25.4315 59.976 26.0715 58.3547 27.3515 57.16C28.7168 55.9653 30.2528 55.368 31.9595 55.368H35.1595C36.5248 47.0053 37.8048 39.7947 38.9995 33.736C40.1088 28.1893 43.6928 25.416 49.7515 25.416C54.6155 25.416 57.0475 27.592 57.0475 31.944C57.0475 32.8827 57.0048 33.608 56.9195 34.12L53.0795 55.368C57.6875 55.112 61.8688 54.0027 65.6235 52.04C69.4635 50.0773 72.4928 47.3467 74.7115 43.848C77.0155 40.3493 78.1675 36.3813 78.1675 31.944C78.1675 26.568 76.3328 22.344 72.6635 19.272C68.9942 16.2 63.6182 14.664 56.5355 14.664C48.1728 14.664 40.8342 16.7547 34.5195 20.936C28.2902 25.032 23.4262 31.176 19.9275 39.368C16.4288 47.4747 14.6795 57.3733 14.6795 69.064C14.6795 74.5253 15.2342 79.2187 16.3435 83.144C17.4528 87.0693 18.8182 90.0133 20.4395 91.976C22.0608 93.9387 23.5968 94.92 25.0475 94.92C26.1568 94.92 27.0528 94.3653 27.7355 93.256C28.5035 92.1467 29.1008 90.3547 29.5275 87.88L32.9835 68.68Z" fill="url(#paint0_linear_2_407)"/>
<defs>
<linearGradient id="paint0_linear_2_407" x1="112.791" y1="-6" x2="-28.5714" y2="-6" gradientUnits="userSpaceOnUse">
<stop stop-color="#4A43EC"/>
<stop offset="1" stop-color="#159DFF" stop-opacity="0.5"/>
</linearGradient>
</defs>
</svg>
