<svg width="366" height="180" viewBox="0 0 366 180" fill="none" xmlns="http://www.w3.org/2000/svg">
<path d="M118.881 92.456C119.99 92.456 120.843 92.968 121.441 93.992C122.123 95.016 122.465 96.424 122.465 98.216C122.465 101.544 121.654 104.189 120.033 106.152C115.937 111.101 111.798 114.941 107.617 117.672C103.435 120.317 98.4858 121.64 92.7685 121.64C87.2218 121.64 82.4858 120.147 78.5605 117.16C74.7205 114.173 71.0512 109.053 67.5525 101.8C64.7365 95.9973 62.5178 91.7307 60.8965 89C59.2752 86.184 57.6538 84.1787 56.0325 82.984C54.4965 81.7893 52.5765 81.064 50.2725 80.808C49.9312 82.6 48.9498 88.232 47.3285 97.704C46.6458 101.971 46.2192 104.573 46.0485 105.512C45.1952 110.717 43.4885 114.728 40.9285 117.544C38.3685 120.275 34.4858 121.64 29.2805 121.64C23.5632 121.64 18.4858 119.976 14.0485 116.648C9.6965 113.235 6.32583 108.541 3.9365 102.568C1.54717 96.5093 0.3525 89.64 0.3525 81.96C0.3525 67.624 2.82717 55.2507 7.7765 44.84C12.8112 34.4293 19.8085 26.4933 28.7685 21.032C37.8138 15.4853 48.2245 12.712 60.0005 12.712C68.1925 12.712 75.0618 13.9493 80.6085 16.424C86.1552 18.8987 90.2512 22.312 92.8965 26.664C95.6272 31.016 96.9925 35.9227 96.9925 41.384C96.9925 46.1627 95.8405 50.856 93.5365 55.464C91.3178 59.9867 87.9472 63.9973 83.4245 67.496C78.9018 70.9947 73.3978 73.5973 66.9125 75.304C71.0085 76.4133 74.1658 78.2053 76.3845 80.68C78.6032 83.1547 80.8218 86.7813 83.0405 91.56C85.4298 96.68 87.7765 100.435 90.0805 102.824C92.4698 105.213 95.2005 106.408 98.2725 106.408C101.003 106.408 103.606 105.512 106.081 103.72C108.555 101.843 111.67 98.6853 115.425 94.248C116.449 93.0533 117.601 92.456 118.881 92.456ZM32.6085 80.68C29.7072 80.68 27.7018 79.9973 26.5925 78.632C25.5685 77.2667 25.0565 75.7307 25.0565 74.024C25.0565 71.976 25.6965 70.3547 26.9765 69.16C28.3418 67.9653 29.8778 67.368 31.5845 67.368H34.7845C36.1498 59.0053 37.4298 51.7947 38.6245 45.736C39.7338 40.1893 43.3178 37.416 49.3765 37.416C54.2405 37.416 56.6725 39.592 56.6725 43.944C56.6725 44.8827 56.6298 45.608 56.5445 46.12L52.7045 67.368C57.3125 67.112 61.4938 66.0027 65.2485 64.04C69.0885 62.0773 72.1178 59.3467 74.3365 55.848C76.6405 52.3493 77.7925 48.3813 77.7925 43.944C77.7925 38.568 75.9578 34.344 72.2885 31.272C68.6192 28.2 63.2432 26.664 56.1605 26.664C47.7978 26.664 40.4592 28.7547 34.1445 32.936C27.9152 37.032 23.0512 43.176 19.5525 51.368C16.0538 59.4747 14.3045 69.3733 14.3045 81.064C14.3045 86.5253 14.8592 91.2187 15.9685 95.144C17.0778 99.0693 18.4432 102.013 20.0645 103.976C21.6858 105.939 23.2218 106.92 24.6725 106.92C25.7818 106.92 26.6778 106.365 27.3605 105.256C28.1285 104.147 28.7258 102.355 29.1525 99.88L32.6085 80.68ZM166.67 92.456C167.779 92.456 168.632 92.968 169.229 93.992C169.912 95.016 170.254 96.424 170.254 98.216C170.254 101.629 169.443 104.275 167.822 106.152C164.664 109.992 160.184 113.533 154.382 116.776C148.664 120.019 142.52 121.64 135.95 121.64C126.99 121.64 120.035 119.208 115.086 114.344C110.136 109.48 107.661 102.824 107.661 94.376C107.661 88.488 108.899 83.0267 111.374 77.992C113.848 72.872 117.262 68.8187 121.614 65.832C126.051 62.8453 131.043 61.352 136.59 61.352C141.539 61.352 145.507 62.8453 148.494 65.832C151.48 68.7333 152.974 72.7013 152.974 77.736C152.974 83.624 150.84 88.7013 146.574 92.968C142.392 97.1493 135.267 100.477 125.198 102.952C127.331 106.877 131.384 108.84 137.358 108.84C141.198 108.84 145.55 107.517 150.414 104.872C155.363 102.141 159.63 98.6 163.214 94.248C164.238 93.0533 165.39 92.456 166.67 92.456ZM134.414 73.896C131.256 73.896 128.568 75.7307 126.35 79.4C124.216 83.0693 123.15 87.5067 123.15 92.712V92.968C128.184 91.7733 132.152 89.9813 135.054 87.592C137.955 85.2027 139.406 82.4293 139.406 79.272C139.406 77.6507 138.936 76.3707 137.998 75.432C137.144 74.408 135.95 73.896 134.414 73.896ZM168.92 121.64C165.677 121.64 163.373 119.933 162.008 116.52C160.728 113.107 160.088 107.645 160.088 100.136C160.088 89.0427 161.666 78.504 164.824 68.52C165.592 66.0453 166.829 64.2533 168.536 63.144C170.328 61.9493 172.802 61.352 175.96 61.352C177.666 61.352 178.861 61.5653 179.544 61.992C180.226 62.4187 180.568 63.2293 180.568 64.424C180.568 65.7893 179.928 68.8613 178.648 73.64C177.794 77.0533 177.112 80.04 176.6 82.6C176.088 85.16 175.661 88.3173 175.32 92.072C178.136 84.7333 181.293 78.76 184.792 74.152C188.29 69.544 191.704 66.2587 195.032 64.296C198.445 62.3333 201.56 61.352 204.376 61.352C209.922 61.352 212.696 64.1253 212.696 69.672C212.696 73 211.757 79.016 209.88 87.72C208.258 95.144 207.448 100.051 207.448 102.44C207.448 105.853 208.685 107.56 211.16 107.56C212.866 107.56 214.872 106.536 217.176 104.488C219.565 102.355 222.722 98.9413 226.648 94.248C227.672 93.0533 228.824 92.456 230.104 92.456C231.213 92.456 232.066 92.968 232.664 93.992C233.346 95.016 233.688 96.424 233.688 98.216C233.688 101.629 232.877 104.275 231.256 106.152C227.586 110.675 223.618 114.387 219.352 117.288C215.17 120.189 210.392 121.64 205.016 121.64C200.664 121.64 197.378 120.403 195.16 117.928C192.941 115.368 191.832 111.699 191.832 106.92C191.832 104.531 192.429 100.264 193.624 94.12C194.733 88.744 195.288 85.032 195.288 82.984C195.288 81.6187 194.818 80.936 193.88 80.936C192.77 80.936 191.192 82.3867 189.144 85.288C187.181 88.104 185.133 91.8587 183 96.552C180.952 101.245 179.288 106.195 178.008 111.4C177.069 115.411 175.96 118.141 174.68 119.592C173.485 120.957 171.565 121.64 168.92 121.64ZM280.42 92.456C281.529 92.456 282.382 92.968 282.979 93.992C283.662 95.016 284.004 96.424 284.004 98.216C284.004 101.629 283.193 104.275 281.572 106.152C277.902 110.675 273.892 114.387 269.54 117.288C265.188 120.189 260.196 121.64 254.564 121.64C237.156 121.64 228.452 109.395 228.452 84.904C228.452 81.1493 228.58 77.352 228.836 73.512H223.844C221.284 73.512 219.534 73.0427 218.596 72.104C217.742 71.1653 217.316 69.672 217.316 67.624C217.316 62.8453 219.236 60.456 223.076 60.456H230.372C231.822 51.0693 234.041 42.4933 237.028 34.728C240.014 26.9627 243.598 20.776 247.78 16.168C252.046 11.56 256.612 9.256 261.476 9.256C265.06 9.256 267.876 10.8347 269.924 13.992C271.972 17.1493 272.996 21.1173 272.996 25.896C272.996 39.1227 267.449 50.6427 256.356 60.456H270.692C272.057 60.456 273.038 60.7547 273.636 61.352C274.233 61.9493 274.532 63.0587 274.532 64.68C274.532 70.568 269.71 73.512 260.068 73.512H244.452C244.281 77.7787 244.196 81.1067 244.196 83.496C244.196 92.3707 245.22 98.6 247.268 102.184C249.401 105.768 252.729 107.56 257.252 107.56C260.921 107.56 264.164 106.451 266.98 104.232C269.796 102.013 273.124 98.6853 276.964 94.248C277.988 93.0533 279.14 92.456 280.42 92.456ZM258.02 21.544C256.74 21.544 255.289 23.1653 253.668 26.408C252.132 29.5653 250.638 34.0027 249.188 39.72C247.822 45.352 246.67 51.624 245.732 58.536C250.766 54.184 254.521 49.32 256.996 43.944C259.556 38.4827 260.836 33.5333 260.836 29.096C260.836 24.0613 259.897 21.544 258.02 21.544ZM322.094 92.456C323.203 92.456 324.056 92.968 324.654 93.992C325.336 95.016 325.678 96.424 325.678 98.216C325.678 101.629 324.867 104.275 323.246 106.152C319.576 110.675 315.566 114.387 311.214 117.288C306.947 120.189 302.083 121.64 296.622 121.64C289.112 121.64 283.523 118.227 279.854 111.4C276.27 104.573 274.478 95.7413 274.478 84.904C274.478 74.4933 275.8 62.632 278.446 49.32C281.176 36.008 285.144 24.5733 290.35 15.016C295.64 5.45866 301.912 0.679993 309.166 0.679993C313.262 0.679993 316.462 2.59999 318.766 6.43999C321.155 10.1947 322.35 15.6133 322.35 22.696C322.35 32.8507 319.534 44.6267 313.902 58.024C308.27 71.4213 300.632 84.6907 290.99 97.832C291.587 101.331 292.568 103.848 293.934 105.384C295.299 106.835 297.091 107.56 299.31 107.56C302.808 107.56 305.88 106.579 308.526 104.616C311.171 102.568 314.542 99.112 318.638 94.248C319.662 93.0533 320.814 92.456 322.094 92.456ZM306.35 13.352C304.387 13.352 302.168 16.8933 299.694 23.976C297.219 31.0587 295.043 39.848 293.166 50.344C291.288 60.84 290.264 70.9093 290.094 80.552C296.152 70.568 300.974 60.584 304.558 50.6C308.142 40.5307 309.934 31.3573 309.934 23.08C309.934 16.5947 308.739 13.352 306.35 13.352ZM360.132 61.352C362.094 61.352 363.46 61.608 364.228 62.12C364.996 62.632 365.38 63.4853 365.38 64.68C365.38 66.728 364.27 74.024 362.052 86.568C360.089 98.6 358.937 105.725 358.596 107.944C355.438 129.875 351.086 147.24 345.54 160.04C339.993 172.84 332.612 179.24 323.396 179.24C319.044 179.24 315.502 177.875 312.772 175.144C310.041 172.499 308.675 169 308.675 164.648C308.675 160.637 309.572 156.541 311.364 152.36C313.241 148.179 316.654 143.357 321.604 137.896C326.638 132.52 333.721 126.333 342.852 119.336L343.236 116.392C343.833 113.235 344.516 108.712 345.284 102.824C343.577 108.968 341.188 113.661 338.116 116.904C335.044 120.061 331.801 121.64 328.388 121.64C324.548 121.64 321.39 119.891 318.916 116.392C316.526 112.808 315.332 108.371 315.332 103.08C315.332 96.68 315.758 90.8347 316.612 85.544C317.465 80.168 318.873 74.4933 320.836 68.52C321.689 65.96 322.884 64.1253 324.42 63.016C325.956 61.9067 328.388 61.352 331.716 61.352C333.593 61.352 334.873 61.6507 335.556 62.248C336.324 62.8453 336.708 63.7413 336.708 64.936C336.708 65.6187 336.238 67.9227 335.3 71.848C334.446 75.0053 333.764 77.864 333.252 80.424C332.569 83.9227 331.972 87.2933 331.46 90.536C330.948 93.6933 330.692 96.296 330.692 98.344C330.692 101.587 331.588 103.208 333.38 103.208C334.66 103.208 336.238 101.928 338.116 99.368C340.078 96.808 342.126 92.9253 344.26 87.72C346.478 82.5147 348.612 76.1147 350.66 68.52C351.342 65.96 352.366 64.1253 353.732 63.016C355.182 61.9067 357.316 61.352 360.132 61.352ZM324.804 166.824C326.937 166.824 329.326 164.349 331.972 159.4C334.617 154.451 337.262 146.216 339.908 134.696C333.337 140.243 328.558 145.277 325.572 149.8C322.67 154.408 321.22 158.419 321.22 161.832C321.22 163.283 321.476 164.477 321.988 165.416C322.585 166.355 323.524 166.824 324.804 166.824Z" fill="url(#paint0_linear_307_185)"/>
<defs>
<linearGradient id="paint0_linear_307_185" x1="336.977" y1="-85" x2="-16.4286" y2="-85" gradientUnits="userSpaceOnUse">
<stop stop-color="#4A43EC"/>
<stop offset="1" stop-color="#159DFF" stop-opacity="0.5"/>
</linearGradient>
</defs>
</svg>
